Coordinates
version=1
nRows=5
nColumns=40
inDegrees=yes

Units are S.I. units (second, meters, Newtons, ...)
If the header above contains a line with 'inDegrees', this indicates whether rotational values are in degrees (yes) or radians (no).

endheader
time	pelvis_tilt	pelvis_list	pelvis_rotation	pelvis_tx	pelvis_ty	pelvis_tz	hip_flexion_r	hip_adduction_r	hip_rotation_r	knee_angle_r	knee_angle_r_beta	ankle_angle_r	subtalar_angle_r	mtp_angle_r	hip_flexion_l	hip_adduction_l	hip_rotation_l	knee_angle_l	knee_angle_l_beta	ankle_angle_l	subtalar_angle_l	mtp_angle_l	lumbar_extension	lumbar_bending	lumbar_rotation	arm_flex_r	arm_add_r	arm_rot_r	elbow_flex_r	pro_sup_r	wrist_flex_r	wrist_dev_r	arm_flex_l	arm_add_l	arm_rot_l	elbow_flex_l	pro_sup_l	wrist_flex_l	wrist_dev_l
      1.98000000	     -1.55637673	      4.16578176	    -89.56140250	      0.15265104	      0.92435991	      1.18377080	      6.98104824	      5.57841109	      2.09507710	      4.31859928	      0.07537378	      3.75654321	      0.00000000	      0.00000000	     28.38633419	     -9.73282405	     -2.62558475	     68.57430398	      1.19684739	      0.68945960	      0.00000000	      0.00000000	     -4.28280358	      1.73085566	     -5.18529029	      0.00000000	      0.00000000	      0.00000000	      0.00000000	      0.00000000	      0.00000000	      0.00000000	      0.00000000	      0.00000000	      0.00000000	      0.00000000	      0.00000000	      0.00000000	      0.00000000
      1.99000000	     -1.54533392	      4.27864053	    -89.62720688	      0.15201190	      0.92446763	      1.19203799	      6.10901186	      5.61084970	      2.21823497	      3.57407460	      0.06237937	      4.00617989	      0.00000000	      0.00000000	     29.65198666	     -9.69646797	     -2.64552967	     67.32231491	      1.17499606	      1.25541158	      0.00000000	      0.00000000	     -4.21114472	      1.70494230	     -4.81857482	      0.00000000	      0.00000000	      0.00000000	      0.00000000	      0.00000000	      0.00000000	      0.00000000	      0.00000000	      0.00000000	      0.00000000	      0.00000000	      0.00000000	      0.00000000	      0.00000000
      2.00000000	     -1.54267302	      4.30119810	    -89.67583672	      0.15146761	      0.92457610	      1.20036415	      5.12470027	      5.64329756	      2.39802732	      2.81127070	      0.04906593	      4.23697391	      0.00000000	      0.00000000	     30.70916569	     -9.62887042	     -2.63534802	     65.82692077	      1.14889650	      1.78247056	      0.00000000	      0.00000000	     -4.24518581	      1.69655466	     -4.48159362	      0.00000000	      0.00000000	      0.00000000	      0.00000000	      0.00000000	      0.00000000	      0.00000000	      0.00000000	      0.00000000	      0.00000000	      0.00000000	      0.00000000	      0.00000000	      0.00000000
      2.01000000	     -1.68446542	      4.52647450	    -89.69678928	      0.15098877	      0.92416311	      1.20838716	      4.61729448	      5.81812082	      1.93711328	      2.48411778	      0.04335603	      4.44446633	      0.00000000	     -0.00000000	     31.97987638	     -9.66434535	     -2.49429627	     64.18422988	      1.12022614	      2.08621804	     -0.00000000	     -0.00000000	     -4.07023260	      1.87424006	     -4.36865312	      0.00000000	     -0.00000000	     -0.00000000	      0.00000000	      0.00000000	      0.00000000	      0.00000000	      0.00000000	      0.00000000	      0.00000000	      0.00000000	      0.00000000	      0.00000000	      0.00000000
      2.02000000	     -1.58117770	      4.39636980	    -89.74102976	      0.15059936	      0.92431261	      1.21698052	      3.28557685	      5.73597807	      2.72009068	      1.42013549	      0.02478604	      4.81482069	      0.00000000	      0.00000000	     32.61637499	     -9.44113602	     -2.53697557	     62.23461292	      1.08619890	      2.56836600	      0.00000000	      0.00000000	     -4.27397086	      1.74701663	     -3.85668547	      0.00000000	      0.00000000	      0.00000000	      0.00000000	      0.00000000	      0.00000000	      0.00000000	      0.00000000	      0.00000000	      0.00000000	      0.00000000	      0.00000000	      0.00000000	      0.00000000
